<?xml version="1.0" encoding="UTF-8"?>
<svg id="Capa_2" xmlns="http://www.w3.org/2000/svg" viewBox="0 0 728.16 181.37">
  <defs>
    <style>
      .cls-1 {
        fill: #5294c4;
      }

      .cls-2 {
        fill: #005992;
      }

      .cls-3 {
        fill: #5591cd;
      }

      .cls-4 {
        fill: #d0131f;
      }

      .cls-5 {
        fill: #00588e;
      }

      .cls-6 {
        fill: #66bfe7;
      }

      .cls-7 {
        fill: #e84623;
      }

      .cls-8 {
        fill: #f08306;
      }
    </style>
  </defs>
  <g id="Capa_1-2" data-name="Capa_1">
    <g>
      <path id="_x38_" class="cls-5" d="M721.11,46.41c-3.86,0-6.98,3.12-6.98,6.98s3.12,6.98,6.98,6.98,6.98-3.12,6.98-6.98-3.12-6.98-6.98-6.98ZM721.11,59.23c-3.23,0-5.84-2.61-5.85-5.85,0-3.23,2.62-5.84,5.85-5.85,3.23,0,5.84,2.62,5.84,5.85,0,3.23-2.61,5.84-5.84,5.85ZM723.04,54.24c-.21-.23-.47-.43-.79-.61.64-.1,1.12-.32,1.44-.68.32-.35.48-.8.48-1.35,0-.43-.1-.81-.31-1.14-.22-.34-.5-.58-.85-.7-.36-.14-.93-.21-1.69-.21h-3.1v7.29h1.47v-3.05h.3c.34,0,.58.03.74.08.15.06.3.16.44.31.14.15.4.5.77,1.07l1.07,1.59h1.76l-.88-1.42c-.35-.57-.63-.97-.84-1.19ZM720.78,52.63h-1.09v-1.85h1.14c.6,0,.95.01,1.08.02.24.05.42.15.55.3.13.15.2.34.2.6,0,.21-.05.4-.15.54-.09.15-.24.24-.41.31-.18.06-.62.08-1.32.08Z"/>
      <g>
        <path class="cls-6" d="M48.23,160.89h.1c3.04,0,5.99-.28,8.92-.81,3.22-.68,6.42-1.66,9.47-2.91,3.79-1.58,7.29-3.66,10.59-6.08,2.17-1.68,4.26-3.57,6.12-5.62,1.96,2.05,3.97,3.94,6.18,5.62,2.94,2.23,6.18,4.15,9.57,5.7l1.08.41.93-.68c1.16-.9,2.23-1.87,3.26-2.82,1.55-1.67,2.94-3.45,4.16-5.31l1.33-2.2-2.42-.85c-10.57-3.61-18.88-12.23-22.14-23.15l-1.96-6.34-1.86,6.34c-3.42,11.3-12.27,20.28-23.48,23.57-2.51.75-5.19,1.25-7.92,1.37-.65,0-1.25.06-1.83.06-2.98,0-5.81-.39-8.52-1.07-3.16-.81-6.17-2.06-8.93-3.65-10.35-6.15-17.35-17.53-17.35-30.56,0-.71.02-1.4.09-2.08l.07-.97-.69-.62c-.59-.58-1.08-1.08-1.58-1.59h-.07c-2.26-2.31-4.37-4.86-6.24-7.63l-2.45-3.7-1.09,4.33c-1,3.9-1.56,7.99-1.56,12.23v.03h0c0,13.51,5.48,25.84,14.2,34.59,5.4,5.52,12.11,9.73,19.67,12.14,3.48,1.11,7.15,1.81,10.91,2.12,1.12.06,2.26.12,3.44.12"/>
        <path class="cls-4" d="M5.32,91.43l1.74-.92-1.74.92c1.77,3.63,4.03,6.98,6.61,9.92.75.9,1.46,1.69,2.27,2.47,1.42,1.46,3,2.84,4.65,4.13,5.15,4.07,11.25,7.09,17.79,8.82-1.45,4.63-2.23,9.54-2.26,14.75h0c0,2.62.22,5.11.59,7.57l.18,1.1,1,.4c3.39,1.46,7.02,2.41,10.9,2.5l2.67.15-.68-2.66c-.71-2.84-1.16-5.89-1.16-9.08,0-9.53,3.74-18.16,9.75-24.5l4.64-4.82-6.43,1.4c-2.42.59-4.94.89-7.51.89-9.07,0-17.17-3.48-23.36-9.14-1.92-1.82-3.66-3.74-5.18-5.94-1.86-2.75-3.42-5.81-4.47-9.02-.96-2.89-1.55-5.97-1.71-9.15,0-.62-.09-1.4-.09-2.08,0-13.69,7.78-25.68,19.05-31.5l.84-.42.22-.86c1.06-4.06,2.55-7.99,4.41-11.67l2.11-4.1-4.38,1.24c-8.32,2.23-15.74,6.69-21.61,12.65C5.48,43.34.04,55.66,0,69.14h0c0,4.26.59,8.34,1.56,12.27.9,3.52,2.17,6.89,3.75,10.03"/>
        <path class="cls-1" d="M36.64,41.22c-.4,2.73-.68,5.47-.68,8.23v.09c0,5.02.81,9.86,2.18,14.42-7.24,1.62-13.76,4.75-19.28,9.14l-1,.75.16,1.22c.77,3.71,2.09,7.13,3.88,10.18l1.25,2.13,1.82-1.66c6.19-5.64,14.29-9.11,23.36-9.11.38,0,.77,0,1.18.06l-.09.11c8.19.42,16.3,3.75,16.3,3.75-2.26-1.96-4.32-4.01-5.99-5.93h.06c-.19-.21-.35-.35-.46-.56-3.07-3.55-4.88-6.41-4.88-6.41v.05c-3.13-5.28-4.96-11.52-4.96-18.13,0-3.14.43-6.21,1.15-9.08.68-2.67,1.68-5.17,2.89-7.52,1.65-3.06,3.67-5.83,6.06-8.32,2.2-2.22,4.71-4.18,7.45-5.73,5.1-2.96,10.97-4.68,17.21-4.68s11.73,1.6,16.7,4.33l.71.45.84-.33c3.97-1.27,8.13-2.05,12.49-2.4l4.72-.33-3.54-3.21C107.67,5.12,96.42.54,84.29.54h-.07c-12.27,0-23.48,4.64-31.99,12.33-.77.65-1.42,1.31-2.1,1.99-1.9,1.92-3.58,3.97-5.15,6.18-2.34,3.29-4.29,6.93-5.75,10.8-1.16,3.03-2.02,6.18-2.58,9.38"/>
        <path class="cls-7" d="M166.88,69.14c0-13.48-5.46-25.8-14.13-34.65-5.44-5.49-12.18-9.7-19.69-12.08-3.48-1.11-7.18-1.82-10.99-2.11-1.16-.12-2.27-.13-3.45-.13h-.03c-3.08,0-6.03.29-8.88.82-3.29.68-6.49,1.63-9.5,2.89-3.79,1.6-7.33,3.68-10.62,6.13-2.2,1.64-4.22,3.57-6.15,5.59-1.89-2.02-3.98-3.94-6.15-5.59-2.98-2.25-6.15-4.2-9.53-5.73l-1.06-.44-.97.7c-1.15.87-2.24,1.88-3.26,2.86-1.58,1.64-2.98,3.45-4.19,5.31l-1.37,2.18,2.43.86c10.55,3.58,18.94,12.24,22.2,23.09l1.89,6.4,1.93-6.4c3.39-11.27,12.27-20.24,23.44-23.53,2.51-.75,5.18-1.23,7.95-1.37.62-.03,1.21-.09,1.87-.09,2.92,0,5.77.42,8.48,1.1,3.16.82,6.18,2.05,8.98,3.65,10.29,6.21,17.25,17.53,17.25,30.55,0,.68-.03,1.46-.06,2.08l-.06.94.7.65c.6.55,1.06,1.05,1.59,1.56l.07.03v.05c2.29,2.29,4.38,4.84,6.24,7.64l2.45,3.65,1.09-4.33c1-3.87,1.53-7.87,1.53-12.04v-.23h0Z"/>
        <path class="cls-5" d="M161.63,89.59c-1.83-3.57-4.09-6.95-6.65-9.89-.71-.88-1.45-1.72-2.22-2.49-1.46-1.43-3.02-2.84-4.66-4.1-5.21-4.11-11.21-7.09-17.82-8.76,1.46-4.59,2.2-9.52,2.23-14.63v-.27c0-2.51-.22-5.01-.56-7.48l-.15-1.07-1.06-.43c-3.32-1.49-7.02-2.35-10.9-2.53l-2.7-.13.71,2.66c.78,2.87,1.12,5.93,1.12,9.08,0,9.54-3.73,18.2-9.74,24.5l-4.66,4.86,6.49-1.45c2.49-.51,4.97-.83,7.58-.83,8.94,0,17.14,3.47,23.31,9.11,1.93,1.79,3.67,3.78,5.16,5.98,1.93,2.7,3.45,5.75,4.47,8.98.93,2.89,1.57,5.93,1.7,9.15.03.67.06,1.36.06,2.08,0,13.74-7.73,25.65-19.03,31.49l-.77.39-.25.89c-1.03,4.13-2.55,7.96-4.41,11.64l-2.17,4.1,4.38-1.22c8.31-2.26,15.75-6.68,21.67-12.71,8.67-8.76,14.09-21.02,14.15-34.47v-.13h0v-.06c0-4.21-.55-8.3-1.57-12.2-.88-3.51-2.16-6.86-3.71-10.07"/>
        <path class="cls-8" d="M130.21,139.8c.42-2.67.68-5.32.68-8.07v-.18c0-5.04-.74-9.92-2.11-14.46,7.15-1.58,13.73-4.78,19.31-9.14l.99-.78-.24-1.19c-.67-3.7-2.01-7.13-3.84-10.2l-1.22-2.07-1.83,1.63c-6.17,5.66-14.34,9.14-23.31,9.14-1.15,0-2.27-.09-3.42-.19-1.83-.23-3.64-.56-5.31-.95-.29-.08-.57-.17-.84-.23v.03c-4.54-1.13-7.79-2.52-7.79-2.52,6.86,6.08,11.26,12.88,11.26,12.88v-.03c3.11,5.29,4.84,11.49,4.84,18.08,0,3.16-.41,6.21-1.09,9.05-.75,2.66-1.68,5.17-2.91,7.49-1.65,3.06-3.67,5.86-6.03,8.29-2.23,2.28-4.78,4.24-7.45,5.85-5.06,2.9-10.96,4.63-17.25,4.63s-11.71-1.57-16.68-4.36l-.74-.42-.84.27c-3.94,1.34-8.13,2.17-12.42,2.5l-4.75.29,3.58,3.24c8.48,7.56,19.63,12.14,31.79,12.14h.13c12.23,0,23.5-4.65,31.95-12.3.74-.65,1.49-1.33,2.16-1.99,1.84-1.95,3.55-3.97,5.13-6.21,2.33-3.35,4.22-6.94,5.71-10.8,1.19-3,2.02-6.12,2.55-9.41"/>
      </g>
      <g>
        <path class="cls-5" d="M322.75,53.6c-1.74.07-4.27.44-7.59,1.11-3.33.68-6.04,1.72-8.14,3.06-2.08,1.43-3.54,4.36-4.34,8.77-.82,4.44-1.2,9.88-1.2,16.28v57.04c0,7.27-1.51,13.58-4.54,18.95-3.01,5.34-6.98,9.77-11.92,13.22-4.85,3.3-10,5.69-15.38,7.13-5.41,1.47-10.56,2.22-15.49,2.22-7.89,0-14.91-1.05-21.07-3.11-6.17-2.07-11.33-4.86-15.55-8.38-4.12-3.52-7.22-7.52-9.32-12.07-2.09-4.51-3.14-9.25-3.14-14.17v-77.55c0-2.15-.37-3.94-1.08-5.39-.69-1.47-2.13-2.8-4.28-4.03-1.55-.85-3.52-1.57-5.92-2.08-2.4-.53-4.36-.86-5.91-.99v-6.56h54.63v6.56c-1.73.07-3.91.34-6.5.85-2.63.47-4.56.94-5.78,1.37-2.11.75-3.51,1.97-4.21,3.69-.71,1.74-1.06,3.62-1.06,5.62v72.43c0,3.52.37,7.17,1.15,11.04.77,3.86,2.3,7.44,4.57,10.77,2.41,3.37,5.67,6.14,9.81,8.29,4.12,2.15,9.77,3.23,16.99,3.23,6.78,0,12.45-1.08,17.06-3.23,4.58-2.15,8.2-4.97,10.87-8.49,2.52-3.32,4.31-6.82,5.36-10.45,1.05-3.59,1.57-7.29,1.57-10.95v-53.77c0-6.82-.49-12.41-1.48-16.78-.98-4.32-2.45-7.19-4.36-8.53-2.15-1.54-5.1-2.75-8.82-3.61-3.72-.87-6.58-1.36-8.55-1.49v-6.56h53.62v6.56Z"/>
        <path class="cls-5" d="M469.46,53.6c-1.75.07-4.38.56-7.97,1.49-3.58.93-6.12,1.87-7.66,2.85-2.22,1.55-3.71,4.51-4.47,8.89-.78,4.37-1.18,9.92-1.18,16.65v96.01h-8.04l-79.48-107.3v67.66c0,7.58.49,13.41,1.43,17.47.95,4.06,2.42,6.96,4.4,8.68,1.4,1.37,4.34,2.64,8.78,3.8,4.43,1.17,7.35,1.76,8.79,1.87v6.53h-53.79v-6.53c1.64-.13,4.45-.74,8.38-1.81,3.94-1.08,6.42-2.06,7.39-2.9,2.16-1.74,3.66-4.38,4.45-7.93.81-3.52,1.19-9.59,1.19-18.15v-64.6c0-2.84-.47-5.66-1.47-8.51-.96-2.83-2.31-5.02-3.98-6.56-2.22-2.03-5.21-3.77-9-5.23-3.8-1.47-6.85-2.24-9.2-2.37v-6.56h37.47l73.75,100.01v-62.39c0-7.62-.52-13.5-1.5-17.62-1-4.07-2.41-6.81-4.25-8.16-1.74-1.18-4.54-2.31-8.46-3.4-3.93-1.13-6.89-1.75-8.91-1.88v-6.56h53.33v6.56Z"/>
        <path class="cls-5" d="M588.76,139.57l-2.52,38.62h-108.87v-6.53c1.85-.13,4.31-.39,7.38-.81,3.09-.37,5.1-.8,6.01-1.25,1.97-.91,3.34-2.12,4.13-3.61.76-1.5,1.14-3.35,1.14-5.62v-94.28c0-2.04-.31-3.85-1-5.39-.69-1.59-2.1-2.87-4.26-3.86-1.66-.8-3.89-1.51-6.69-2.13-2.8-.62-5.05-.98-6.7-1.11v-6.56h101.47v31.62h-6.92c-1.23-4.67-3.88-9.68-7.99-14.93-4.11-5.29-7.99-8.13-11.7-8.65-1.91-.25-4.18-.44-6.81-.55-2.66-.14-5.7-.18-9.07-.18h-20.61v52.12h14.79c4.74,0,8.21-.43,10.38-1.32,2.2-.91,4.13-2.39,5.78-4.51,1.36-1.76,2.53-4.19,3.45-7.15.98-3.01,1.6-5.81,1.91-8.47h6.96v51.4h-6.96c-.25-2.96-.9-6.08-1.97-9.38-1.07-3.31-2.24-5.68-3.38-7.17-1.9-2.42-4.08-3.96-6.5-4.72-2.45-.74-5.68-1.12-9.67-1.12h-14.79v39.32c0,3.95.29,7.05.83,9.34.56,2.29,1.64,4,3.23,5.15,1.61,1.18,3.8,1.93,6.57,2.27,2.77.36,6.71.51,11.82.51h8.05c3.32,0,6.13-.12,8.43-.36,2.31-.25,4.75-.73,7.23-1.36,2.49-.65,4.28-1.51,5.33-2.62,2.83-2.98,5.81-7.45,8.9-13.44,3.13-6.02,5.13-10.43,5.98-13.27h6.66Z"/>
        <path class="cls-5" d="M728.16,178.19h-54.49v-6.53c4.79-.33,8.78-.93,11.95-1.87,3.19-.91,4.76-2.05,4.76-3.43,0-.55-.07-1.23-.19-2.03-.12-.81-.33-1.5-.56-2.13l-10.85-29.41h-46.04c-1.73,4.35-3.14,8.09-4.23,11.3-1.06,3.2-2.04,6.16-2.89,8.89-.81,2.64-1.37,4.79-1.68,6.45-.29,1.68-.45,3.03-.45,4.09,0,2.45,1.93,4.37,5.83,5.7,3.87,1.4,8.26,2.19,13.11,2.45v6.53h-49.39v-6.53c1.6-.13,3.62-.49,6.02-1.08,2.4-.59,4.36-1.37,5.9-2.37,2.45-1.64,4.37-3.4,5.74-5.21,1.32-1.82,2.67-4.35,3.97-7.53,6.58-16.46,13.84-34.92,21.8-55.46,7.96-20.53,15.04-37.19,21.27-53.19h7.39l43.74,111.5c.91,2.42,1.96,4.37,3.13,5.82,1.18,1.49,2.81,2.93,4.87,4.34,1.45.87,3.29,1.59,5.59,2.2,2.26.58,4.16.87,5.71.97v6.53ZM675.39,124.6l-19.87-50.9-19.56,50.9h39.43Z"/>
      </g>
      <g>
        <g>
          <path class="cls-2" d="M224.34,26.24h-9.34v-1.26c.31-.03.62-.04.96-.07.33-.04.62-.09.84-.15.35-.11.63-.3.81-.59.19-.29.27-.67.27-1.12V4.71c0-.47-.1-.89-.31-1.3-.19-.39-.46-.71-.78-.94-.24-.15-.66-.3-1.29-.43-.62-.13-1.12-.21-1.49-.23V.6l7.2-.42.27.29v22.34c0,.44.09.81.26,1.1.17.29.45.51.81.66.29.11.57.22.84.28.29.06.6.1.94.13v1.26Z"/>
          <path class="cls-2" d="M232.98.6c-.39-.4-.89-.6-1.52-.6-.55,0-1.03.22-1.43.65-.41.42-.61.93-.61,1.5,0,.54.2,1.02.61,1.44.4.42.88.63,1.43.63.61,0,1.11-.22,1.51-.66.41-.44.62-.96.62-1.56,0-.53-.21-.99-.61-1.39M236.28,26.24h-9.09v-1.26c.3-.03.61-.04.92-.07.32-.02.59-.08.83-.16.37-.11.64-.3.81-.59.19-.29.26-.67.26-1.12v-11.61c0-.4-.08-.78-.28-1.12-.18-.34-.44-.62-.78-.85-.25-.15-.6-.29-1.06-.39-.46-.1-.89-.18-1.28-.21v-1.26l6.59-.42.28.26v15.38c0,.44.08.81.26,1.11.17.29.46.5.81.65.28.11.58.2.84.28.27.07.58.1.91.13v1.26Z"/>
          <path class="cls-2" d="M249.2,15.85c-1.1.32-1.86.6-2.68.91-.84.31-1.6.69-2.3,1.16-.66.43-1.16.94-1.54,1.54-.37.58-.57,1.29-.57,2.11,0,1.06.29,1.85.85,2.33.56.51,1.27.76,2.14.76.92,0,1.74-.23,2.43-.66.71-.44,1.19-.81,1.67-1.42v-6.72ZM256.18,25.9c-.6.23-1.14.4-1.6.53-.46.13-.98.21-1.56.21-1.01,0-1.82-.25-2.42-.7-.6-.47-.99-1.14-1.16-2.04h-.11c-.85.92-1.75,1.63-2.72,2.12-.95.48-2.12.72-3.47.72-1.45,0-2.63-.44-3.55-1.31-.93-.85-1.38-1.98-1.38-3.39,0-.73.11-1.38.31-1.95.2-.58.51-1.09.93-1.55.32-.37.75-.72,1.29-1.02.52-.3,1.01-.53,1.48-.71.59-.22,1.77-.62,3.55-1.21,1.78-.59,2.82-1.04,3.43-1.37v-1.88c0-.16-.04-.5-.11-.97-.07-.47-.21-.92-.45-1.33-.26-.47-.63-.89-1.1-1.23-.47-.36-.96-.53-1.83-.53-.6,0-1.15.1-1.67.31-.51.19-.86.4-1.07.61,0,.26.07.64.18,1.15.13.49.19.94.19,1.37,0,.44-.21.85-.61,1.21-.41.37-.98.56-1.69.56-.65,0-1.14-.22-1.44-.67-.31-.46-.46-.96-.46-1.52,0-.59.21-1.15.63-1.68.42-.55.98-1.02,1.64-1.44.58-.35,1.28-.65,2.12-.91.83-.24,1.63-.37,2.44-.37,1.08,0,2.03.08,2.83.22.83.15,1.56.46,2.21.93.66.48,1.16,1.12,1.5,1.94.34.81.52,1.84.52,3.12,0,1.82-.03,3.43-.06,4.84-.05,1.42-.05,2.96-.05,4.62,0,.49.08.89.26,1.18.18.3.45.55.81.76.18.11.5.18.92.19.41,0,.84.01,1.29.01v1.22Z"/>
          <path class="cls-2" d="M258.78,22.08c0,1.45.32,2.59.98,3.38.66.78,1.88,1.2,3.5,1.2,1.09,0,2.01-.13,2.76-.36.64-.19,1.31-.44,2.01-.72v-1.45c-.24.04-.55.08-.94.13-.63.05-1.1.08-1.43.08-.71,0-1.26-.1-1.67-.29-.42-.18-.73-.47-.93-.83-.23-.4-.37-.86-.43-1.38-.05-.53-.08-1.19-.08-1.99v-10.53h5.45v-1.84h-5.49V2.1h-3.72v19.99Z"/>
          <path class="cls-2" d="M196.31,15.17l4.13-10.53,4.17,10.53h-8.29ZM214.47,24.68c-.48-.11-.85-.26-1.16-.45-.44-.28-.78-.59-1.02-.89-.25-.31-.47-.7-.67-1.2L203.02.21h-2.7c-1.16,2.95-2.45,6.25-3.89,9.87-1.67,4.25-3.19,8.07-4.58,11.46-.27.65-.55,1.18-.84,1.56-.28.37-.68.73-1.2,1.09-.33.19-.74.36-1.24.48-.51.12-.93.19-1.26.21v1.36h10.37v-1.36c-1.02-.04-1.94-.21-2.76-.49-.81-.28-1.22-.68-1.22-1.18,0-.22.03-.51.1-.84.07-.34.19-.79.35-1.35.18-.55.39-1.17.62-1.81.23-.68.52-1.45.88-2.35h9.68l2.27,6.09c.05.13.1.27.12.44.03.17.05.31.05.42,0,.29-.34.51-1.01.71-.67.19-1.51.32-2.51.38v1.36h11.45v-1.36c-.33,0-.72-.08-1.21-.21"/>
        </g>
        <g>
          <path class="cls-3" d="M289.19,16.97c0,2.53-.16,4.87-1.89,6.91-1.73,2.04-4.34,2.82-6.99,2.82s-5.21-.51-6.96-2.44c-1.88-2.09-2.03-4.65-2.03-7.28V.28h3.25v16.69c0,1.52.03,3.61.97,4.94,1.06,1.51,3.26,1.97,5.02,1.97,1.67,0,3.56-.51,4.65-1.81,1.26-1.45,1.26-3.34,1.26-5.09V.28h2.72v16.69Z"/>
          <path class="cls-3" d="M295.46,10.95h.08c1.1-2.36,3.25-3.98,5.97-3.98,2.3,0,4.23.96,5.44,2.93.99,1.6.9,4.13.9,5.99v10.45h-2.95v-11.67c0-1.12.05-2.53-.53-3.51-.65-1.07-2.04-1.7-3.29-1.7-1.54,0-2.93.7-3.96,1.89-1.25,1.49-1.52,3.2-1.52,5.1v9.89h-2.95V7.44h2.8v3.51Z"/>
          <path class="cls-3" d="M314.22,26.33h-2.94V7.44h2.94v18.89ZM314.37,3.59h-3.25V.31h3.25v3.28Z"/>
          <polygon class="cls-3" points="326.71 26.33 323.61 26.33 316.77 7.44 320.06 7.44 325.41 22.8 330.66 7.44 333.31 7.44 326.71 26.33"/>
          <path class="cls-3" d="M356.77,7.44v4.42h.08c.91-2.57,2.54-4.95,5.62-4.95l1.1.08v2.78h-.6c-2.26,0-3.85,1.09-4.95,2.98-.79,1.37-.94,2.57-.94,4.06v9.51h-2.94V7.44h2.64Z"/>
          <path class="cls-3" d="M386.38,26.31h-2.94V7.42h2.94v18.89ZM386.53,3.57h-3.24V.29h3.24v3.27Z"/>
          <path class="cls-3" d="M402.8,15.14c0-1.3-.18-2.64-.97-3.76-.96-1.33-2.65-2.12-4.31-2.12s-3.1,1-3.89,2.37c-.87,1.49-1.14,3.21-1.14,4.93,0,3.08.84,7.72,4.97,7.72,1.69,0,3.24-.91,4.23-2.27.9-1.23,1.12-2.45,1.12-3.86v-3.02ZM402.8.28h2.96v26.05h-2.68v-3.35h-.07c-1.22,2.38-3.19,3.71-6.02,3.71-2.54,0-4.45-1.19-5.86-3.2-1.31-1.92-1.81-4.29-1.81-6.61,0-4.72,2.37-9.92,7.93-9.92,2.46,0,4.19,1.14,5.54,3.04V.28Z"/>
          <path class="cls-3" d="M422.11,16.82h-2.46c-3.01,0-7.77.41-7.77,4.31,0,2.34,2.04,3.32,4.15,3.32,3.62,0,6.08-3.06,6.08-6.4v-1.22ZM422.11,14.63v-.82c0-3.32-1.48-4.57-4.87-4.57-2.42,0-4.73.73-5.26,3.34l-2.76-.44c.53-3.95,4.76-5.17,8.27-5.17,2.08,0,4.47.21,5.91,1.85,1.57,1.67,1.57,4.05,1.57,6.21v7.32c0,1.37.03,2.75.41,3.98h-2.95l-.33-3.53c-1.37,2.71-3.66,3.9-6.72,3.9-3.59,0-6.69-1.96-6.69-5.7,0-2.27,1.43-4.33,3.55-5.25,2.16-1.01,4.99-1.11,7.37-1.11h2.5Z"/>
          <path class="cls-3" d="M441.56,15.14c0-1.3-.18-2.64-.98-3.76-.95-1.33-2.65-2.12-4.31-2.12s-3.11,1-3.89,2.37c-.87,1.49-1.14,3.21-1.14,4.93,0,3.08.84,7.72,4.94,7.72,1.71,0,3.26-.91,4.24-2.27.9-1.23,1.13-2.45,1.13-3.86v-3.02ZM441.56.28h2.95v26.05h-2.68v-3.35h-.09c-1.21,2.38-3.18,3.71-6.01,3.71-2.52,0-4.46-1.19-5.86-3.2-1.32-1.92-1.81-4.29-1.81-6.61,0-4.72,2.38-9.92,7.93-9.92,2.47,0,4.2,1.14,5.56,3.04V.28Z"/>
          <path class="cls-3" d="M450.97,14.95c.11-2.98,2.19-5.76,5.41-5.76,3.4,0,5.17,2.64,5.14,5.76h-10.56ZM456.38,6.96c-5.75,0-8.89,4.72-8.89,9.92s2.99,9.81,8.81,9.81c3.3,0,6.34-1.67,7.74-4.55.5-.99.48-1.41.48-1.41h-2.96c-.82,2.23-2.55,3.52-5.04,3.52-2,0-4.02-1.09-4.92-2.88-.71-1.4-.79-2.78-.79-4.26h13.94c.16-5.25-2.41-10.15-8.38-10.15"/>
          <path class="cls-3" d="M337.4,14.96c.11-2.98,2.19-5.77,5.39-5.77,3.4,0,5.18,2.64,5.15,5.77h-10.55ZM342.8,6.96c-5.74,0-8.88,4.72-8.88,9.92s2.99,9.81,8.81,9.81c3.3,0,6.34-1.67,7.74-4.55.52-.99.49-1.41.49-1.41h-2.96c-.83,2.23-2.56,3.52-5.05,3.52-2,0-4-1.09-4.92-2.87-.71-1.4-.79-2.78-.79-4.27h13.94c.16-5.25-2.41-10.15-8.39-10.15"/>
          <path class="cls-3" d="M466.73,20.79h3.15c.41,2.58,3.46,3.54,5.77,3.54,2.04,0,4.66-.71,4.66-3.12,0-2.01-2.08-2.58-3.75-2.87l-3.13-.56c-2.95-.55-5.63-1.89-5.63-5.25,0-3.9,3.66-5.53,7.18-5.53,0,0,6.56-.39,7.73,5.3h-2.85c-.77-2.07-2.73-2.97-4.92-2.97-1.73,0-4.08.68-4.08,2.76s1.73,2.49,3.44,2.74l2.79.49c1.41.26,2.84.51,4.01,1.3,1.51,1.01,2.31,2.57,2.31,4.27,0,4.27-4.24,5.85-7.98,5.85,0,0-7.22.35-8.69-5.96"/>
          <path class="cls-3" d="M363.8,20.79h3.15c.41,2.58,3.48,3.54,5.77,3.54,2.04,0,4.66-.71,4.66-3.12,0-2.01-2.08-2.58-3.74-2.87l-3.14-.56c-2.95-.55-5.63-1.89-5.63-5.25,0-3.9,3.67-5.53,7.18-5.53,0,0,6.55-.39,7.73,5.3h-2.85c-.75-2.07-2.72-2.97-4.91-2.97-1.74,0-4.08.68-4.08,2.76s1.74,2.49,3.44,2.74l2.79.49c1.4.26,2.83.51,4,1.3,1.52,1.01,2.31,2.57,2.31,4.27,0,4.27-4.23,5.85-7.98,5.85,0,0-7.22.35-8.7-5.96"/>
          <path id="_x38_-2" data-name="_x38_" class="cls-3" d="M485.72,7.58c-.97,0-1.77.78-1.77,1.75s.79,1.77,1.77,1.77,1.76-.78,1.76-1.77-.79-1.75-1.76-1.75ZM485.72,10.82c-.82,0-1.48-.66-1.48-1.49s.66-1.47,1.48-1.47,1.48.66,1.48,1.47-.67,1.49-1.48,1.49ZM486.21,9.56c-.05-.06-.12-.11-.2-.16.16-.02.27-.07.36-.17.08-.09.12-.2.12-.34,0-.11-.03-.21-.08-.29-.05-.08-.13-.14-.21-.17-.09-.03-.23-.05-.43-.05h-.78v1.85h.37v-.77h.07c.09,0,.15,0,.19.02.04,0,.08.04.11.08.03.03.1.13.2.27l.26.4h.45l-.22-.36c-.1-.15-.17-.23-.21-.29ZM485.63,9.14h-.28v-.46h.29c.16,0,.24,0,.28,0,.05,0,.1.03.13.07.03.04.05.09.05.15,0,.05-.01.1-.04.13-.02.04-.05.07-.1.08-.04.02-.16.02-.33.02Z"/>
        </g>
      </g>
    </g>
  </g>
</svg>